# xmcd CD database file
#
# Track frame offsets:
#	182
#	10567
#	20582
#	30930
#	40652
#	51660
#	60815
#	71060
#	83220
#	93027
#
# Disc length: 1366 seconds
#
# Revision: 2
# Processed by: cddbd v1.4PL0 Copyright (c) Steve Scherf et al.
# Submitted via: CDex 1.40Release
#
DISCID=6b05540a
DTITLE=Roy Orbison - Devil Doll
DYEAR=1993
DGENRE=Rock and Roll
TTITLE0=Chicken Hearted
TTITLE1=Devil Doll
TTITLE2=Domino
TTITLE3=Go Go Go
TTITLE4=I Never Knew
TTITLE5=He's Too Late
TTITLE6=Ooby Dooby
TTITLE7=Trying to Get to You
TTITLE8=You're Gonna Cry
TTITLE9=You're My Baby
EXTD=YEAR: 1993 ID3G: 78
EXTT0=
EXTT1=
EXTT2=
EXTT3=
EXTT4=
EXTT5=
EXTT6=
EXTT7=
EXTT8=
EXTT9=
PLAYORDER=
